<svg width="12" height="12" viewBox="0 0 12 12" fill="none" xmlns="http://www.w3.org/2000/svg">
<path d="M11.7396 5.2694C11.9758 5.04503 12.0592 4.71573 11.9573 4.40962C11.8552 4.1035 11.5892 3.88498 11.2624 3.83861L8.35684 3.4271C8.23309 3.40954 8.12617 3.33389 8.0709 3.22451L6.77192 0.658494C6.62606 0.370181 6.33003 0.19101 6.00012 0.19101C5.67045 0.19101 5.37442 0.370181 5.22856 0.658494L3.92934 3.22474C3.87407 3.33412 3.76691 3.40977 3.64316 3.42734L0.737627 3.83884C0.411079 3.88498 0.144842 4.10374 0.042721 4.40985C-0.0591601 4.71596 0.024219 5.04526 0.26042 5.26964L2.36268 7.26699C2.4523 7.35224 2.49339 7.47497 2.47225 7.59488L1.9763 10.4153C1.93233 10.6635 1.99913 10.905 2.16396 11.0954C2.42011 11.3921 2.86728 11.4826 3.22482 11.2994L5.82327 9.96767C5.93188 9.91217 6.0686 9.91263 6.17697 9.96767L8.77566 11.2994C8.90205 11.3643 9.03685 11.3971 9.17597 11.3971C9.42996 11.3971 9.67072 11.287 9.83628 11.0954C10.0014 10.905 10.0679 10.663 10.0239 10.4153L9.52775 7.59488C9.50661 7.47473 9.5477 7.35224 9.63732 7.26699L11.7396 5.2694Z" fill="#9D2929"/>
</svg>
