<svg width="12" height="12" viewBox="0 0 12 12" fill="none" xmlns="http://www.w3.org/2000/svg">
<path d="M11.7396 5.26974C11.9758 5.04536 12.0592 4.71605 11.9573 4.40993C11.8552 4.10381 11.5892 3.88529 11.2624 3.83892L8.35677 3.4274C8.23302 3.40983 8.12609 3.33418 8.07082 3.2248L6.77181 0.658504C6.62596 0.370184 6.32992 0.19101 6 0.19101C5.67032 0.19101 5.37428 0.370184 5.22843 0.658504L3.92918 3.2248C3.87391 3.33418 3.76674 3.40983 3.64299 3.4274L0.737401 3.83915C0.410847 3.88529 0.144845 4.10381 0.0427218 4.40993C-0.0591613 4.71605 0.0242195 5.04536 0.260425 5.26974L2.36272 7.26713C2.45235 7.35238 2.49344 7.47511 2.4723 7.59503L1.9761 10.4157C1.92035 10.7326 2.05131 11.0467 2.31827 11.2359C2.58499 11.4254 2.93221 11.45 3.22465 11.2999L5.82315 9.9681C5.93392 9.91142 6.06608 9.91142 6.17685 9.9681L8.77559 11.2999C8.90247 11.365 9.03991 11.3971 9.17664 11.3971C9.35421 11.3971 9.53107 11.3429 9.68197 11.2359C9.94893 11.0467 10.0799 10.7326 10.0241 10.4157L9.5277 7.59527C9.50656 7.47511 9.54765 7.35262 9.63727 7.26736L11.7396 5.26974ZM9.05433 7.67443L9.55053 10.4949C9.57552 10.6368 9.51905 10.7724 9.39939 10.8572C9.27948 10.9417 9.13026 10.952 8.9993 10.8855L6.40056 9.55354C6.27537 9.4896 6.13745 9.45728 6 9.45728C5.86255 9.45728 5.72487 9.4896 5.59944 9.55378L3.00118 10.8855C2.86974 10.952 2.72052 10.9417 2.60085 10.8572C2.48119 10.7724 2.42496 10.637 2.44971 10.4949L2.94591 7.67443C2.99373 7.40227 2.90122 7.12449 2.69841 6.93197L0.59587 4.93434C0.489902 4.83363 0.453859 4.6917 0.499754 4.55468C0.545409 4.41743 0.660028 4.32327 0.806364 4.30243L3.71171 3.89091C3.99213 3.85133 4.23459 3.67988 4.35978 3.43208L5.65903 0.865785C5.72439 0.736498 5.85198 0.659441 5.99976 0.659441C6.14778 0.659441 6.27513 0.736498 6.34073 0.865785L7.63998 3.43208C7.76517 3.67988 8.00739 3.85133 8.2878 3.89091L11.1934 4.30243C11.3397 4.32327 11.4544 4.41743 11.5 4.55468C11.5457 4.6917 11.5099 4.83363 11.4039 4.93434L9.30159 6.93173C9.09878 7.12449 9.00627 7.40204 9.05433 7.67443Z" fill="#9D2929"/>
</svg>
